<mxfile host="Electron" modified="2023-12-02T15:23:52.175Z" agent="Mozilla/5.0 (Windows NT 10.0; Win64; x64) AppleWebKit/537.36 (KHTML, like Gecko) draw.io/21.6.8 Chrome/114.0.5735.289 Electron/25.5.0 Safari/537.36" etag="L-7WlQ1_Pt_eSp5kzzeS" version="21.6.8" type="device">
  <diagram name="PÃ¡gina-1" id="S6Cazga8lZf7gi2Ayobz">
    <mxGraphModel dx="2261" dy="2005" grid="1" gridSize="10" guides="1" tooltips="1" connect="1" arrows="1" fold="1" page="1" pageScale="1" pageWidth="827" pageHeight="1169" math="0" shadow="0">
      <root>
        <mxCell id="0" />
        <mxCell id="1" parent="0" />
        <mxCell id="AaPs44Fbv8m94SrR54ya-17" style="edgeStyle=orthogonalEdgeStyle;rounded=0;orthogonalLoop=1;jettySize=auto;html=1;endArrow=none;endFill=0;dashed=1;" edge="1" parent="1" source="AaPs44Fbv8m94SrR54ya-18">
          <mxGeometry relative="1" as="geometry">
            <mxPoint x="-725" y="-300" as="targetPoint" />
          </mxGeometry>
        </mxCell>
        <mxCell id="AaPs44Fbv8m94SrR54ya-18" value=":Administrador" style="html=1;whiteSpace=wrap;" vertex="1" parent="1">
          <mxGeometry x="-780" y="-1110" width="110" height="50" as="geometry" />
        </mxCell>
        <mxCell id="AaPs44Fbv8m94SrR54ya-19" style="edgeStyle=orthogonalEdgeStyle;rounded=0;orthogonalLoop=1;jettySize=auto;html=1;dashed=1;endArrow=none;endFill=0;" edge="1" parent="1" source="AaPs44Fbv8m94SrR54ya-20">
          <mxGeometry relative="1" as="geometry">
            <mxPoint x="-495" y="-300" as="targetPoint" />
          </mxGeometry>
        </mxCell>
        <mxCell id="AaPs44Fbv8m94SrR54ya-20" value=":Sistema" style="html=1;whiteSpace=wrap;" vertex="1" parent="1">
          <mxGeometry x="-550" y="-1110" width="110" height="50" as="geometry" />
        </mxCell>
        <mxCell id="AaPs44Fbv8m94SrR54ya-21" value="" style="html=1;points=[[0,0,0,0,5],[0,1,0,0,-5],[1,0,0,0,5],[1,1,0,0,-5]];perimeter=orthogonalPerimeter;outlineConnect=0;targetShapes=umlLifeline;portConstraint=eastwest;newEdgeStyle={&quot;curved&quot;:0,&quot;rounded&quot;:0};" vertex="1" parent="1">
          <mxGeometry x="-500" y="-1000" width="10" height="80" as="geometry" />
        </mxCell>
        <mxCell id="AaPs44Fbv8m94SrR54ya-22" value="1.1 getProperties();" style="html=1;verticalAlign=bottom;endArrow=block;curved=0;rounded=0;entryX=0;entryY=0;entryDx=0;entryDy=5;exitX=1;exitY=0;exitDx=0;exitDy=5;exitPerimeter=0;" edge="1" parent="1" source="AaPs44Fbv8m94SrR54ya-24" target="AaPs44Fbv8m94SrR54ya-21">
          <mxGeometry relative="1" as="geometry">
            <mxPoint x="-725" y="-995" as="sourcePoint" />
            <mxPoint as="offset" />
          </mxGeometry>
        </mxCell>
        <mxCell id="AaPs44Fbv8m94SrR54ya-23" value="1.2 return properties;" style="html=1;verticalAlign=bottom;endArrow=open;endSize=8;curved=0;rounded=0;exitX=0;exitY=1;exitDx=0;exitDy=-5;entryX=1;entryY=1;entryDx=0;entryDy=-5;entryPerimeter=0;" edge="1" parent="1" source="AaPs44Fbv8m94SrR54ya-21" target="AaPs44Fbv8m94SrR54ya-24">
          <mxGeometry relative="1" as="geometry">
            <mxPoint x="-725" y="-924" as="targetPoint" />
          </mxGeometry>
        </mxCell>
        <mxCell id="AaPs44Fbv8m94SrR54ya-24" value="" style="html=1;points=[[0,0,0,0,5],[0,1,0,0,-5],[1,0,0,0,5],[1,1,0,0,-5]];perimeter=orthogonalPerimeter;outlineConnect=0;targetShapes=umlLifeline;portConstraint=eastwest;newEdgeStyle={&quot;curved&quot;:0,&quot;rounded&quot;:0};" vertex="1" parent="1">
          <mxGeometry x="-730" y="-1000" width="10" height="80" as="geometry" />
        </mxCell>
        <mxCell id="AaPs44Fbv8m94SrR54ya-29" value="" style="html=1;points=[[0,0,0,0,5],[0,1,0,0,-5],[1,0,0,0,5],[1,1,0,0,-5]];perimeter=orthogonalPerimeter;outlineConnect=0;targetShapes=umlLifeline;portConstraint=eastwest;newEdgeStyle={&quot;curved&quot;:0,&quot;rounded&quot;:0};" vertex="1" parent="1">
          <mxGeometry x="-500" y="-860" width="10" height="80" as="geometry" />
        </mxCell>
        <mxCell id="AaPs44Fbv8m94SrR54ya-30" value="2.1 getProjects(propertyId);" style="html=1;verticalAlign=bottom;endArrow=block;curved=0;rounded=0;entryX=0;entryY=0;entryDx=0;entryDy=5;exitX=1;exitY=0;exitDx=0;exitDy=5;exitPerimeter=0;" edge="1" parent="1" source="AaPs44Fbv8m94SrR54ya-32" target="AaPs44Fbv8m94SrR54ya-29">
          <mxGeometry relative="1" as="geometry">
            <mxPoint x="-725" y="-855" as="sourcePoint" />
            <mxPoint as="offset" />
          </mxGeometry>
        </mxCell>
        <mxCell id="AaPs44Fbv8m94SrR54ya-31" value="2.2 return projects;" style="html=1;verticalAlign=bottom;endArrow=open;endSize=8;curved=0;rounded=0;exitX=0;exitY=1;exitDx=0;exitDy=-5;entryX=1;entryY=1;entryDx=0;entryDy=-5;entryPerimeter=0;" edge="1" parent="1" source="AaPs44Fbv8m94SrR54ya-29" target="AaPs44Fbv8m94SrR54ya-32">
          <mxGeometry relative="1" as="geometry">
            <mxPoint x="-725" y="-784" as="targetPoint" />
          </mxGeometry>
        </mxCell>
        <mxCell id="AaPs44Fbv8m94SrR54ya-32" value="" style="html=1;points=[[0,0,0,0,5],[0,1,0,0,-5],[1,0,0,0,5],[1,1,0,0,-5]];perimeter=orthogonalPerimeter;outlineConnect=0;targetShapes=umlLifeline;portConstraint=eastwest;newEdgeStyle={&quot;curved&quot;:0,&quot;rounded&quot;:0};" vertex="1" parent="1">
          <mxGeometry x="-730" y="-860" width="10" height="80" as="geometry" />
        </mxCell>
        <mxCell id="AaPs44Fbv8m94SrR54ya-41" value="" style="html=1;points=[[0,0,0,0,5],[0,1,0,0,-5],[1,0,0,0,5],[1,1,0,0,-5]];perimeter=orthogonalPerimeter;outlineConnect=0;targetShapes=umlLifeline;portConstraint=eastwest;newEdgeStyle={&quot;curved&quot;:0,&quot;rounded&quot;:0};" vertex="1" parent="1">
          <mxGeometry x="-500" y="-730" width="10" height="80" as="geometry" />
        </mxCell>
        <mxCell id="AaPs44Fbv8m94SrR54ya-42" value="3.1 getStages(projectId);" style="html=1;verticalAlign=bottom;endArrow=block;curved=0;rounded=0;entryX=0;entryY=0;entryDx=0;entryDy=5;exitX=1;exitY=0;exitDx=0;exitDy=5;exitPerimeter=0;" edge="1" parent="1" source="AaPs44Fbv8m94SrR54ya-44" target="AaPs44Fbv8m94SrR54ya-41">
          <mxGeometry relative="1" as="geometry">
            <mxPoint x="-725" y="-725" as="sourcePoint" />
            <mxPoint as="offset" />
          </mxGeometry>
        </mxCell>
        <mxCell id="AaPs44Fbv8m94SrR54ya-43" value="3.2 return stages;" style="html=1;verticalAlign=bottom;endArrow=open;endSize=8;curved=0;rounded=0;exitX=0;exitY=1;exitDx=0;exitDy=-5;entryX=1;entryY=1;entryDx=0;entryDy=-5;entryPerimeter=0;" edge="1" parent="1" source="AaPs44Fbv8m94SrR54ya-41" target="AaPs44Fbv8m94SrR54ya-44">
          <mxGeometry relative="1" as="geometry">
            <mxPoint x="-725" y="-654" as="targetPoint" />
          </mxGeometry>
        </mxCell>
        <mxCell id="AaPs44Fbv8m94SrR54ya-44" value="" style="html=1;points=[[0,0,0,0,5],[0,1,0,0,-5],[1,0,0,0,5],[1,1,0,0,-5]];perimeter=orthogonalPerimeter;outlineConnect=0;targetShapes=umlLifeline;portConstraint=eastwest;newEdgeStyle={&quot;curved&quot;:0,&quot;rounded&quot;:0};" vertex="1" parent="1">
          <mxGeometry x="-730" y="-730" width="10" height="80" as="geometry" />
        </mxCell>
        <mxCell id="AaPs44Fbv8m94SrR54ya-45" value="" style="html=1;points=[[0,0,0,0,5],[0,1,0,0,-5],[1,0,0,0,5],[1,1,0,0,-5]];perimeter=orthogonalPerimeter;outlineConnect=0;targetShapes=umlLifeline;portConstraint=eastwest;newEdgeStyle={&quot;curved&quot;:0,&quot;rounded&quot;:0};" vertex="1" parent="1">
          <mxGeometry x="-500" y="-600" width="10" height="120" as="geometry" />
        </mxCell>
        <mxCell id="AaPs44Fbv8m94SrR54ya-46" value="4.1 initForm(stageId);" style="html=1;verticalAlign=bottom;endArrow=block;curved=0;rounded=0;entryX=0;entryY=0;entryDx=0;entryDy=5;exitX=1;exitY=0;exitDx=0;exitDy=5;exitPerimeter=0;" edge="1" parent="1" source="AaPs44Fbv8m94SrR54ya-48" target="AaPs44Fbv8m94SrR54ya-45">
          <mxGeometry x="0.0026" relative="1" as="geometry">
            <mxPoint x="-725" y="-595" as="sourcePoint" />
            <mxPoint as="offset" />
          </mxGeometry>
        </mxCell>
        <mxCell id="AaPs44Fbv8m94SrR54ya-48" value="" style="html=1;points=[[0,0,0,0,5],[0,1,0,0,-5],[1,0,0,0,5],[1,1,0,0,-5]];perimeter=orthogonalPerimeter;outlineConnect=0;targetShapes=umlLifeline;portConstraint=eastwest;newEdgeStyle={&quot;curved&quot;:0,&quot;rounded&quot;:0};" vertex="1" parent="1">
          <mxGeometry x="-730" y="-600" width="10" height="120" as="geometry" />
        </mxCell>
        <mxCell id="AaPs44Fbv8m94SrR54ya-49" value="4.2 getFields(stageId);" style="html=1;verticalAlign=bottom;endArrow=block;curved=0;rounded=0;entryX=0;entryY=0;entryDx=0;entryDy=5;exitX=1;exitY=0;exitDx=0;exitDy=5;exitPerimeter=0;" edge="1" parent="1">
          <mxGeometry relative="1" as="geometry">
            <mxPoint x="-720" y="-540.29" as="sourcePoint" />
            <mxPoint as="offset" />
            <mxPoint x="-500" y="-540.29" as="targetPoint" />
          </mxGeometry>
        </mxCell>
        <mxCell id="AaPs44Fbv8m94SrR54ya-50" value="4.3 return fields;" style="html=1;verticalAlign=bottom;endArrow=open;endSize=8;curved=0;rounded=0;exitX=0;exitY=1;exitDx=0;exitDy=-5;entryX=1;entryY=1;entryDx=0;entryDy=-5;entryPerimeter=0;" edge="1" parent="1">
          <mxGeometry relative="1" as="geometry">
            <mxPoint x="-720" y="-490" as="targetPoint" />
            <mxPoint x="-500" y="-490" as="sourcePoint" />
          </mxGeometry>
        </mxCell>
        <mxCell id="AaPs44Fbv8m94SrR54ya-51" value="" style="html=1;points=[[0,0,0,0,5],[0,1,0,0,-5],[1,0,0,0,5],[1,1,0,0,-5]];perimeter=orthogonalPerimeter;outlineConnect=0;targetShapes=umlLifeline;portConstraint=eastwest;newEdgeStyle={&quot;curved&quot;:0,&quot;rounded&quot;:0};" vertex="1" parent="1">
          <mxGeometry x="-500" y="-440" width="10" height="40" as="geometry" />
        </mxCell>
        <mxCell id="AaPs44Fbv8m94SrR54ya-52" value="5 addField(formId, fieldId);" style="html=1;verticalAlign=bottom;endArrow=block;curved=0;rounded=0;entryX=0;entryY=0;entryDx=0;entryDy=5;exitX=1;exitY=0;exitDx=0;exitDy=5;exitPerimeter=0;" edge="1" parent="1">
          <mxGeometry x="0.0023" relative="1" as="geometry">
            <mxPoint x="-720" y="-420" as="sourcePoint" />
            <mxPoint as="offset" />
            <mxPoint x="-500" y="-419.9999999999998" as="targetPoint" />
          </mxGeometry>
        </mxCell>
        <mxCell id="AaPs44Fbv8m94SrR54ya-53" value="" style="html=1;points=[[0,0,0,0,5],[0,1,0,0,-5],[1,0,0,0,5],[1,1,0,0,-5]];perimeter=orthogonalPerimeter;outlineConnect=0;targetShapes=umlLifeline;portConstraint=eastwest;newEdgeStyle={&quot;curved&quot;:0,&quot;rounded&quot;:0};" vertex="1" parent="1">
          <mxGeometry x="-730" y="-440" width="10" height="40" as="geometry" />
        </mxCell>
        <mxCell id="AaPs44Fbv8m94SrR54ya-59" value="" style="html=1;points=[[0,0,0,0,5],[0,1,0,0,-5],[1,0,0,0,5],[1,1,0,0,-5]];perimeter=orthogonalPerimeter;outlineConnect=0;targetShapes=umlLifeline;portConstraint=eastwest;newEdgeStyle={&quot;curved&quot;:0,&quot;rounded&quot;:0};" vertex="1" parent="1">
          <mxGeometry x="-500" y="-360" width="10" height="40" as="geometry" />
        </mxCell>
        <mxCell id="AaPs44Fbv8m94SrR54ya-60" value="6 finishForm(formId);" style="html=1;verticalAlign=bottom;endArrow=block;curved=0;rounded=0;entryX=0;entryY=0;entryDx=0;entryDy=5;exitX=1;exitY=0;exitDx=0;exitDy=5;exitPerimeter=0;" edge="1" parent="1">
          <mxGeometry x="0.0023" relative="1" as="geometry">
            <mxPoint x="-720" y="-340" as="sourcePoint" />
            <mxPoint as="offset" />
            <mxPoint x="-500" y="-339.9999999999998" as="targetPoint" />
          </mxGeometry>
        </mxCell>
        <mxCell id="AaPs44Fbv8m94SrR54ya-61" value="" style="html=1;points=[[0,0,0,0,5],[0,1,0,0,-5],[1,0,0,0,5],[1,1,0,0,-5]];perimeter=orthogonalPerimeter;outlineConnect=0;targetShapes=umlLifeline;portConstraint=eastwest;newEdgeStyle={&quot;curved&quot;:0,&quot;rounded&quot;:0};" vertex="1" parent="1">
          <mxGeometry x="-730" y="-360" width="10" height="40" as="geometry" />
        </mxCell>
        <mxCell id="AaPs44Fbv8m94SrR54ya-62" value="loop" style="shape=umlFrame;whiteSpace=wrap;html=1;pointerEvents=0;" vertex="1" parent="1">
          <mxGeometry x="-800" y="-460" width="370" height="80" as="geometry" />
        </mxCell>
      </root>
    </mxGraphModel>
  </diagram>
</mxfile>
